<?xml version="1.0" encoding="utf-8"?>
<!-- Generator: Adobe Illustrator 15.1.0, SVG Export Plug-In . SVG Version: 6.00 Build 0)  -->
<!DOCTYPE svg PUBLIC "-//W3C//DTD SVG 1.1//EN" "http://www.w3.org/Graphics/SVG/1.1/DTD/svg11.dtd">
<svg version="1.1" id="Layer_1" xmlns="http://www.w3.org/2000/svg" xmlns:xlink="http://www.w3.org/1999/xlink" x="0px" y="0px"
	 width="283px" height="281.867px" viewBox="0 0 283 281.867" enable-background="new 0 0 283 281.867" xml:space="preserve">
<g>
	<g>
		<g>
			<path fill="#FFFFFF" d="M124.484,61.798c1.066-0.414,0.863,1.205,1.223,1.779c4.93,13.473,10.088,26.863,14.926,40.363
				l0.299,0.266l0.309-0.271c5.23-14.068,10.416-28.166,15.762-42.193l0.41-0.059c3.361,3.422,5.162,8.33,4.289,13.113
				c-1.746,9.707-5.379,18.939-8.734,28.178c-1.785,4.787-3.604,9.559-5.562,14.279c-0.26,0.93-0.973,1.912-0.523,2.896
				c2.227,5.475,3.73,11.207,4.814,17.012c0.393,1.404,0.48,2.996,1.42,4.174c1.041,0.064,1.908-0.764,2.893-1.045
				c3.549-1.389,8.004-1.184,10.957,1.42c5.732,4.605,5.938,14.535,0.369,19.338c-2.869,2.488-6.938,3.201-10.586,2.439
				c-3.941-0.924-6.729-4.545-7.607-8.359c-2.039-6.977-0.033-14.408-1.885-21.412c-0.697-2.924-3.068-5.262-5.883-6.207
				c-1.553-0.199-2.896,0.961-4.035,1.873c-2.625,2.268-3.135,5.926-3.422,9.189c-0.625,6.473,0.812,13.395-2.205,19.447
				c-1.582,3.451-5.197,5.883-9.029,5.74c-4.277,0.275-8.529-2.08-10.586-5.828c-1.426-2.814-1.715-6.086-1.232-9.172
				c0.789-4.477,4.355-8.656,9.027-9.193c3.096-0.586,6.064,0.701,8.846,1.857c0.686-0.432,0.674-1.354,0.961-2.035
				c1.172-4.113,1.648-8.396,2.996-12.471c0.592-2.672,2.18-5.059,2.566-7.762c-2.908-7.586-5.949-15.121-8.646-22.783
				c-2.543-7.094-5.104-14.246-6.385-21.699C119.453,70.001,121.156,65.121,124.484,61.798z M119.57,143.718
				c-5.678,1.979-6.939,10.371-2.6,14.295c2.672,2.467,7.154,2.533,9.885,0.133c3.943-3.211,4.225-10.283,0.012-13.389
				C124.871,143.099,121.963,142.96,119.57,143.718z M157.66,143.541c-5.191,1.145-6.965,7.762-4.539,12.059
				c1.725,3.637,6.49,5.455,10.123,3.57c4.334-1.996,5.5-8.045,3.217-11.969C164.842,144.111,160.988,142.58,157.66,143.541z"/>
		</g>
		<path fill="#FFFFFF" d="M139.482,163.083c3.5-1.111,7.369,2.145,6.586,5.811c-0.365,3.998-5.916,5.771-8.646,2.93
			C134.502,169.353,135.779,164.017,139.482,163.083z"/>
	</g>
</g>
</svg>
